<?xml version="1.0" encoding="utf-8"?>
<!-- Generator: Adobe Illustrator 21.0.0, SVG Export Plug-In . SVG Version: 6.00 Build 0)  -->
<svg version="1.1" id="Layer_1" xmlns="http://www.w3.org/2000/svg" xmlns:xlink="http://www.w3.org/1999/xlink" x="0px" y="0px"
	 viewBox="0 0 612 154.7" style="enable-background:new 0 0 612 154.7;" xml:space="preserve">
<style type="text/css">
	.st0{fill:#FFFFFF;}
</style>
<g>
	<path class="st0" d="M73.2,53.1c0-1.9,0.4-3.6,1.2-5.1c0.8-1.4,1.9-2.7,3.4-3.7c1.4-1,3.2-1.9,5.2-2.5c2-0.7,4.2-1.2,6.7-1.5
		c2.4-0.4,5-0.6,7.8-0.8c2.8-0.1,5.6-0.2,8.6-0.2c4,0,8.2,0.2,12.6,0.5c4.4,0.3,9,0.9,13.8,1.8c1.1,0.2,1.9,0.6,2.3,1.2
		c0.5,0.6,0.7,1.3,0.7,2c0,0.5-0.1,0.9-0.3,1.4c-0.2,0.4-0.5,0.8-0.8,1.2c-0.3,0.4-0.8,0.7-1.2,0.9c-0.5,0.2-0.9,0.3-1.5,0.3
		c-1.8,0-3.6-0.1-5.6-0.3c-1.9-0.2-3.9-0.4-6-0.6c-2.1-0.2-4.2-0.5-6.5-0.7c-2.2-0.2-4.5-0.4-6.9-0.5c-0.4,2.6-0.9,5.4-1.6,8.3
		c-0.6,3-1.4,6-2.1,9.1c-0.8,3.1-1.6,6.2-2.4,9.3c-0.8,3.1-1.7,6-2.4,8.8c-0.8,2.8-1.5,5.4-2.2,7.8c-0.7,2.4-1.2,4.4-1.7,6.1
		c-0.2,0.8-0.5,1.5-0.8,2.2c-0.4,0.7-0.8,1.2-1.3,1.7c-0.5,0.5-1,0.9-1.5,1.1c-0.5,0.3-1,0.4-1.4,0.4c-1.3,0-2.4-0.3-3.3-0.9
		s-1.3-1.6-1.3-3c0-0.4,0.1-0.9,0.2-1.5c0.3-2.1,0.7-4.2,1.2-6.2c0.5-2,1.1-4.2,1.7-6.4c0.7-2.2,1.4-4.5,2.3-7
		c0.9-2.5,1.8-5.2,2.8-8.2c1-3,2.2-6.2,3.4-9.8c1.2-3.6,2.5-7.6,3.9-12c-1.2,0.1-2.5,0.2-3.7,0.3c-1.3,0.1-2.5,0.3-3.7,0.5
		c-1.2,0.2-2.3,0.4-3.3,0.7c-1,0.3-1.9,0.7-2.7,1.1c-0.8,0.5-1.4,1-1.8,1.7c-0.5,0.6-0.7,1.4-0.7,2.3c0,0,0,0.3-0.1,0.8
		s-0.3,1-0.6,1.5c-0.3,0.5-0.9,1-1.6,1.5s-1.8,0.7-3.2,0.7s-2.5-0.2-3.2-0.7s-1.3-1-1.7-1.5C73.5,54.6,73.3,53.9,73.2,53.1z"/>
	<path class="st0" d="M135.9,77.6c0.9-1.2,2-2.6,3.2-4c1.2-1.4,2.4-2.8,3.7-4c1.3-1.2,2.5-2.3,3.8-3.1c1.3-0.8,2.4-1.2,3.6-1.2
		c0.3,0,0.6,0.1,0.9,0.2c0.3,0.1,0.7,0.3,1,0.6c0.3,0.3,0.6,0.7,0.8,1.2c0.2,0.5,0.3,1.1,0.3,1.9c0,1.6-0.2,3.1-0.7,4.6
		c-0.4,1.5-0.9,3-1.4,4.5c-0.5,1.5-1,3-1.4,4.6c-0.4,1.5-0.6,3.2-0.6,4.9c0,0.9,0.1,1.7,0.4,2.2c0.3,0.6,0.6,0.8,1.1,0.8
		c0.6,0,1.1-0.1,1.8-0.3c0.6-0.2,1.2-0.5,1.9-0.9c0.6-0.4,1.2-0.8,1.8-1.3c0.6-0.5,1.2-1,1.7-1.5c1.3-1.2,2.5-2.5,3.7-4l0.6,9.2
		c-0.4,0.3-0.9,0.7-1.6,1.2c-0.6,0.5-1.3,1-2.1,1.5c-0.8,0.5-1.6,1.1-2.5,1.6s-1.8,1-2.7,1.5c-0.9,0.4-1.8,0.8-2.7,1.1
		c-0.9,0.3-1.8,0.4-2.6,0.4c-1.3,0-2.4-0.3-3.3-1c-0.9-0.7-1.7-1.5-2.3-2.6c-0.6-1.1-1.1-2.2-1.4-3.4c-0.3-1.2-0.5-2.4-0.5-3.5
		c0-0.7,0.1-1.6,0.3-2.5c0.2-0.9,0.4-1.8,0.7-2.8c0.3-0.9,0.6-1.8,1-2.7c0.4-0.9,0.7-1.7,1-2.4c0.3-0.7,0.6-1.3,0.8-1.7
		c0.2-0.4,0.4-0.7,0.5-0.8l-0.7-0.1c-0.4,0.3-1.1,0.9-2,1.9c-0.9,1-2,2.4-3.2,3.9c-1.2,1.6-2.4,3.4-3.7,5.3s-2.4,4-3.4,6.1
		c-0.5,1-0.9,1.9-1.2,2.7c-0.3,0.8-0.6,1.4-1,1.9c-0.3,0.5-0.7,0.9-1,1.1c-0.4,0.3-0.8,0.4-1.4,0.4c-0.8,0-1.4-0.2-1.8-0.7
		c-0.4-0.4-0.8-1-1-1.7c-0.2-0.7-0.4-1.6-0.5-2.5s-0.1-1.9-0.1-2.8c0-1.5,0-3.6,0.1-6.1c0-2.5,0.1-5.3,0.3-8.3
		c0.2-3,0.5-6.3,0.8-9.6c0.3-3.4,0.8-6.7,1.5-10c0.6-3.3,1.4-6.4,2.4-9.4c1-3,2.1-5.6,3.5-7.9s3-4.1,4.8-5.4c1.8-1.3,4-2,6.4-2
		c1.2,0,2.3,0.2,3.1,0.6c0.8,0.4,1.4,0.9,1.9,1.6c0.5,0.7,0.8,1.5,1,2.4c0.2,0.9,0.3,2,0.3,3.1c0,1.7-0.2,3.6-0.7,5.7
		c-0.5,2.1-1.1,4.2-1.9,6.5c-0.8,2.2-1.7,4.5-2.7,6.8c-1,2.3-2.1,4.5-3.1,6.7c-1.1,2.2-2.1,4.2-3.1,6.1c-1,1.9-1.9,3.6-2.7,5.1
		L135.9,77.6z M139,56.2c1.4-3.5,2.3-6.5,3-8.9c0.6-2.4,0.9-4.2,0.9-5.4c0-1.8-0.2-2.6-0.7-2.6c-0.6,0-1.5,1-2.7,2.9
		c-1.2,2-2.6,4.8-4.2,8.6c-0.4,1.3-0.8,2.6-1.1,3.9c-0.3,1.4-0.6,2.7-0.9,4.1c-0.3,1.4-0.5,2.7-0.7,4c-0.2,1.3-0.4,2.5-0.6,3.7
		c-0.4,2.7-0.7,5.4-0.9,8.1c0.6-1.5,1.3-3,2-4.7c0.7-1.7,1.5-3.4,2.2-5.1c0.7-1.7,1.4-3.3,2-4.7S138.6,57.2,139,56.2z"/>
	<path class="st0" d="M171.2,99.2c-2.2,0-4.1-0.4-5.7-1.2c-1.6-0.8-3-1.8-4.1-3.2c-1.1-1.3-1.9-2.9-2.4-4.6
		c-0.5-1.7-0.8-3.6-0.8-5.5c0-1.3,0.1-2.7,0.4-4.1c0.3-1.4,0.6-2.9,1.2-4.2s1.2-2.7,2-4c0.8-1.3,1.7-2.4,2.8-3.3
		c1.1-1,2.2-1.7,3.5-2.3c1.3-0.6,2.8-0.8,4.3-0.8c1.3,0,2.5,0.2,3.6,0.6c1.1,0.4,2.1,1,2.9,1.7c0.8,0.8,1.5,1.7,1.9,2.7
		c0.5,1.1,0.7,2.3,0.7,3.6c0,1.4-0.4,2.9-1.1,4.3c-0.7,1.4-1.7,2.8-2.9,4.1c-1.2,1.3-2.7,2.4-4.5,3.4c-1.7,1-3.6,1.8-5.6,2.3
		c0.3,0.6,0.7,1.1,1,1.6c0.3,0.4,0.7,0.7,1,1c0.3,0.2,0.7,0.4,1.1,0.5c0.4,0.1,0.8,0.1,1.2,0.1c1.4,0,2.8-0.3,4.4-0.8
		c1.5-0.6,3-1.2,4.5-2.1s2.8-1.7,4.1-2.7c1.3-1,2.4-1.9,3.3-2.8l4.5,4.6c-2,2.1-4.2,4-6.5,5.6c-1,0.7-2.1,1.4-3.2,2
		c-1.1,0.7-2.3,1.3-3.6,1.8c-1.3,0.5-2.6,0.9-3.9,1.2C174,99,172.6,99.2,171.2,99.2z M166.6,82.9c0.8,0,1.7-0.2,2.7-0.6
		c1-0.4,1.9-1,2.7-1.6c0.8-0.7,1.6-1.4,2.1-2.2c0.6-0.8,0.9-1.5,0.9-2.3c0-1-0.2-1.9-0.6-2.6c-0.4-0.7-0.8-1-1.4-1
		c-1,0-1.8,0.2-2.5,0.6c-0.7,0.4-1.3,0.8-1.8,1.4c-0.5,0.6-0.9,1.3-1.1,2c-0.3,0.8-0.5,1.5-0.7,2.3c-0.2,0.8-0.2,1.5-0.3,2.2
		C166.6,81.7,166.6,82.4,166.6,82.9z"/>
	<path class="st0" d="M213.3,45.7c0,0.8-0.2,1.9-0.6,3.5c-0.4,1.5-0.9,3.3-1.4,5.3c-0.6,2-1.2,4.2-1.9,6.5c-0.7,2.4-1.3,4.7-1.9,7.2
		c-0.6,2.4-1.1,4.8-1.4,7.2c-0.4,2.3-0.6,4.5-0.6,6.5c0,1.6,0.1,3.2,0.3,4.6c0.2,1.4,0.6,2.7,1,3.7c0.5,1.1,1,1.9,1.7,2.5
		s1.5,0.9,2.5,0.9c0.9,0,1.9-0.3,2.8-0.8c0.9-0.6,1.7-1.3,2.6-2.3c0.8-1,1.6-2.1,2.4-3.5c0.8-1.3,1.5-2.8,2.2-4.3s1.4-3.2,2-4.9
		s1.2-3.5,1.8-5.2c1.9-6.2,3.7-13.2,5.2-21.1c0.3-1.3,0.6-2.3,1-3.2c0.4-0.9,0.8-1.5,1.4-2c0.5-0.5,1.1-0.9,1.9-1.1
		c0.7-0.2,1.5-0.3,2.4-0.3c0.9,0,1.6,0.1,2.2,0.2s1,0.4,1.4,0.7c0.3,0.3,0.6,0.6,0.7,1c0.1,0.4,0.2,0.8,0.2,1.3c0,0.2-0.1,0.8-0.3,2
		c-0.2,1.2-0.4,2.7-0.7,4.6c-0.3,1.9-0.6,4-0.9,6.3c-0.3,2.4-0.6,4.8-0.9,7.3c-0.3,2.5-0.5,4.9-0.7,7.4s-0.3,4.7-0.3,6.7
		c0,2.1,0.1,4,0.2,5.6c0.1,1.7,0.4,3.1,0.8,4.3c0.4,1.2,0.8,2.1,1.4,2.7c0.6,0.6,1.3,0.9,2.1,0.9c1.5,0,2.8-0.6,4-1.7
		c1.2-1.2,2.3-2.7,3.3-4.6c1-1.9,1.9-4.2,2.7-6.7c0.8-2.5,1.5-5.2,2.1-8c0.6-2.8,1.1-5.6,1.6-8.4c0.5-2.8,0.8-5.5,1.1-8
		c0.3-2.5,0.5-4.8,0.7-6.8c0.2-2,0.3-3.6,0.4-4.7c0.1-1.2,0.3-2.1,0.6-2.8c0.4-0.7,0.8-1.3,1.4-1.7c0.6-0.4,1.2-0.7,1.9-0.8
		s1.4-0.2,2.2-0.2c0.6,0,1.1,0.1,1.6,0.2c0.5,0.1,0.9,0.3,1.2,0.7c0.3,0.3,0.6,0.7,0.8,1.2c0.2,0.5,0.3,1.2,0.3,2
		c0,2.2-0.1,4.7-0.4,7.3c-0.3,2.6-0.6,5.2-1.1,7.8c-0.4,2.6-0.9,5.2-1.4,7.6c-0.5,2.5-1,4.7-1.4,6.7c-0.4,2-0.8,3.7-1.1,5
		c-0.3,1.4-0.4,2.2-0.4,2.6c0,0.9,0.1,1.7,0.4,2.3c0.3,0.6,0.6,1.2,1,1.6c0.4,0.4,0.9,0.7,1.5,0.9c0.6,0.2,1.2,0.3,1.9,0.3
		c0.7,0,1.4-0.2,2.1-0.5c0.7-0.3,1.4-0.7,2-1.3s1.2-1.2,1.8-2c0.5-0.8,1-1.6,1.4-2.6l0.6,7.2c-1.7,2-3.5,3.5-5.3,4.6
		c-1.8,1.1-3.5,1.7-5.1,1.7c-0.8,0-1.5-0.1-2.1-0.4s-1.3-0.6-1.8-1.1c-0.5-0.5-1-1.2-1.3-2c-0.3-0.8-0.6-1.8-0.7-2.9
		c-1.2,2.1-2.4,4.1-3.7,5.8c-1.3,1.7-2.7,3.2-4.2,4.4s-3,2.1-4.7,2.8s-3.3,1-5,1c-2.2,0-4.1-0.6-5.6-1.7c-1.5-1.2-2.8-2.7-3.7-4.7
		c-1-2-1.7-4.3-2.1-7c-0.4-2.7-0.7-5.5-0.7-8.6c0-1.1,0.1-2.1,0.2-3.1c0.1-1,0.2-1.8,0.3-2.6c-0.8,5.3-1.9,9.7-3.1,13.2
		c-1.3,3.5-2.7,6.4-4.4,8.5c-1.7,2.1-3.6,3.7-5.8,4.6c-2.2,0.9-4.6,1.4-7.3,1.4c-1.5,0-3-0.5-4.4-1.5s-2.6-2.5-3.7-4.5
		c-1.1-2-1.9-4.5-2.5-7.5c-0.6-3-1-6.5-1-10.5c0-2.4,0.1-5,0.4-7.5c0.3-2.6,0.7-5.2,1.2-7.7c0.5-2.6,1.2-5.2,1.9-7.7
		c0.8-2.5,1.6-5,2.6-7.4c0.6-1.3,1.2-2.4,1.7-3.1c0.6-0.8,1.2-1.3,1.8-1.7c0.6-0.4,1.2-0.6,1.8-0.6c0.6-0.1,1.2-0.1,1.9-0.1
		c0.5,0,1,0,1.4,0.1s0.8,0.2,1.1,0.4c0.3,0.2,0.5,0.5,0.7,0.9C213.2,44.5,213.3,45,213.3,45.7z"/>
	<path class="st0" d="M282.8,77.6c0.9-1.2,2-2.6,3.2-4s2.4-2.8,3.7-4c1.3-1.2,2.5-2.3,3.8-3.1c1.3-0.8,2.4-1.2,3.6-1.2
		c0.3,0,0.6,0.1,0.9,0.2s0.7,0.3,1,0.6c0.3,0.3,0.6,0.7,0.8,1.2c0.2,0.5,0.3,1.1,0.3,1.9c0,1.6-0.2,3.1-0.7,4.6
		c-0.4,1.5-0.9,3-1.4,4.5s-1,3-1.4,4.6c-0.4,1.5-0.6,3.2-0.6,4.9c0,0.9,0.1,1.7,0.4,2.2s0.6,0.8,1.1,0.8c0.6,0,1.1-0.1,1.8-0.3
		c0.6-0.2,1.2-0.5,1.9-0.9c0.6-0.4,1.2-0.8,1.8-1.3c0.6-0.5,1.2-1,1.7-1.5c1.3-1.2,2.5-2.5,3.7-4l0.6,9.2c-0.4,0.3-0.9,0.7-1.6,1.2
		c-0.6,0.5-1.3,1-2.1,1.5c-0.8,0.5-1.6,1.1-2.5,1.6c-0.9,0.6-1.8,1-2.7,1.5s-1.8,0.8-2.7,1.1c-0.9,0.3-1.8,0.4-2.6,0.4
		c-1.3,0-2.4-0.3-3.3-1c-0.9-0.7-1.7-1.5-2.3-2.6c-0.6-1.1-1.1-2.2-1.4-3.4c-0.3-1.2-0.5-2.4-0.5-3.5c0-0.7,0.1-1.6,0.3-2.5
		c0.2-0.9,0.4-1.8,0.7-2.8c0.3-0.9,0.6-1.8,1-2.7c0.4-0.9,0.7-1.7,1-2.4c0.3-0.7,0.6-1.3,0.8-1.7c0.2-0.4,0.4-0.7,0.4-0.8l-0.7-0.1
		c-0.4,0.3-1.1,0.9-2,1.9c-0.9,1-2,2.4-3.2,3.9c-1.2,1.6-2.4,3.4-3.7,5.3c-1.3,2-2.4,4-3.4,6.1c-0.5,1-0.9,1.9-1.2,2.7
		c-0.3,0.8-0.6,1.4-1,1.9c-0.3,0.5-0.7,0.9-1,1.1c-0.4,0.3-0.8,0.4-1.4,0.4c-0.8,0-1.4-0.2-1.8-0.7c-0.4-0.4-0.8-1-1-1.7
		c-0.2-0.7-0.4-1.6-0.4-2.5c-0.1-0.9-0.1-1.9-0.1-2.8c0-1.5,0-3.6,0.1-6.1c0-2.5,0.1-5.3,0.3-8.3c0.2-3,0.4-6.3,0.8-9.6
		c0.3-3.4,0.8-6.7,1.5-10c0.6-3.3,1.4-6.4,2.4-9.4c1-3,2.1-5.6,3.5-7.9s3-4.1,4.8-5.4c1.8-1.3,4-2,6.4-2c1.2,0,2.3,0.2,3.1,0.6
		c0.8,0.4,1.4,0.9,1.9,1.6c0.5,0.7,0.8,1.5,1,2.4c0.2,0.9,0.3,2,0.3,3.1c0,1.7-0.2,3.6-0.7,5.7c-0.5,2.1-1.1,4.2-1.9,6.5
		c-0.8,2.2-1.7,4.5-2.7,6.8c-1,2.3-2.1,4.5-3.1,6.7s-2.1,4.2-3.1,6.1c-1,1.9-1.9,3.6-2.7,5.1L282.8,77.6z M285.9,56.2
		c1.4-3.5,2.3-6.5,3-8.9c0.6-2.4,0.9-4.2,0.9-5.4c0-1.8-0.2-2.6-0.7-2.6c-0.6,0-1.5,1-2.7,2.9c-1.2,2-2.6,4.8-4.2,8.6
		c-0.4,1.3-0.8,2.6-1.1,3.9c-0.3,1.4-0.6,2.7-0.9,4.1c-0.3,1.4-0.5,2.7-0.7,4c-0.2,1.3-0.4,2.5-0.6,3.7c-0.4,2.7-0.7,5.4-0.9,8.1
		c0.6-1.5,1.3-3,2-4.7c0.7-1.7,1.5-3.4,2.2-5.1c0.7-1.7,1.4-3.3,2-4.7S285.5,57.2,285.9,56.2z"/>
	<path class="st0" d="M342.6,90.7c-0.5,0.7-1.2,1.6-2.1,2.6c-0.9,1-1.9,1.9-3,2.8s-2.3,1.7-3.6,2.3c-1.3,0.6-2.5,0.9-3.8,0.9
		c-1.5,0-2.8-0.5-3.8-1.5c-1-1-1.9-2.4-2.6-4.3c-0.6,0.6-1.2,1.3-2,2c-0.8,0.7-1.7,1.3-2.7,1.8c-1,0.5-2,1-3,1.3
		c-1,0.3-2.1,0.5-3.1,0.5c-1.1,0-2.2-0.2-3.2-0.7c-1.1-0.5-2-1.1-2.8-1.9c-0.8-0.8-1.5-1.9-1.9-3.1c-0.5-1.2-0.7-2.6-0.7-4.1
		c0-1.7,0.2-3.5,0.7-5.3c0.5-1.8,1.2-3.6,2-5.4c0.9-1.7,1.9-3.4,3-4.9c1.2-1.5,2.4-2.9,3.8-4.1c1.4-1.2,2.8-2.1,4.4-2.8
		c1.5-0.7,3.1-1,4.7-1c0.5,0,0.9,0.1,1.2,0.3c0.3,0.2,0.5,0.4,0.7,0.7c0.2,0.3,0.4,0.5,0.6,0.8c0.2,0.3,0.4,0.4,0.7,0.6
		c0.3,0.1,0.6,0.2,0.8,0.2s0.6,0.1,0.9,0.1c0.3,0,0.5,0,0.8,0c0.3,0,0.5,0,0.8,0c0.3,0,0.7,0,1,0.1c0.3,0.1,0.6,0.2,0.8,0.5
		c0.2,0.2,0.4,0.6,0.5,1c0.1,0.4,0.2,1,0.2,1.7c0,1.1-0.1,2.3-0.3,3.7c-0.2,1.4-0.5,2.7-0.8,4.2c-0.3,1.4-0.5,2.8-0.8,4.3
		c-0.2,1.4-0.3,2.8-0.3,4c0,1.1,0.1,1.9,0.3,2.5c0.2,0.6,0.6,0.9,1.3,0.9c0.5,0,1-0.1,1.5-0.4c0.5-0.2,1.1-0.6,1.6-1
		c0.5-0.4,1.1-0.8,1.6-1.3c0.5-0.5,1.1-1,1.5-1.5c1.1-1.2,2.3-2.7,3.4-4.2L342.6,90.7z M313,87.9c0,0.6,0,1.1,0.1,1.7
		c0.1,0.5,0.2,1,0.4,1.5c0.2,0.4,0.5,0.8,0.8,1c0.3,0.3,0.8,0.4,1.3,0.4c0.9,0,1.6-0.4,2.3-1.1c0.7-0.7,1.3-1.6,1.8-2.7
		c0.5-1,0.9-2.1,1.2-3.2c0.3-1.1,0.5-2,0.6-2.8l2.1-10.2c-0.9,0-1.9,0.2-2.8,0.7c-0.9,0.5-1.8,1.1-2.5,1.9s-1.5,1.7-2.2,2.8
		c-0.7,1-1.2,2.1-1.7,3.3c-0.5,1.1-0.9,2.3-1.1,3.4C313.2,85.8,313,86.9,313,87.9z"/>
	<path class="st0" d="M346.3,99.2c-1.2,0-2.4-0.5-3.5-1.6c-1.1-1.1-2-2.6-2.8-4.4c-0.8-1.8-1.4-4-1.9-6.4c-0.5-2.4-0.7-5-0.7-7.7
		c0-2.1,0.1-4.3,0.5-6.7c0.3-2.4,0.7-4.9,1.3-7.5c0.6-2.6,1.3-5.1,2.1-7.7c0.8-2.6,1.7-5.1,2.7-7.4c1-2.4,2.1-4.6,3.3-6.7
		c1.2-2.1,2.4-3.9,3.7-5.4c1.3-1.5,2.6-2.7,4.1-3.6c1.4-0.9,2.8-1.3,4.3-1.3c1,0,1.8,0.2,2.5,0.7s1.2,1,1.5,1.8
		c0.4,0.7,0.6,1.6,0.8,2.5s0.2,1.9,0.2,2.9c0,2.2-0.2,4.4-0.7,6.6s-1.2,4.5-2,6.8c-0.8,2.3-1.8,4.6-2.9,6.8s-2.3,4.6-3.5,6.8
		c-1.2,2.3-2.4,4.5-3.6,6.7s-2.4,4.3-3.4,6.4c-0.1,0.2-0.2,0.5-0.4,0.9c-0.1,0.4-0.2,0.8-0.4,1.2c-0.1,0.4-0.2,0.9-0.3,1.4
		c-0.1,0.5-0.2,1-0.3,1.4V86c0,0.6,0.1,1.2,0.2,1.7c0.1,0.6,0.3,1.1,0.5,1.5c0.2,0.5,0.4,0.8,0.6,1.1s0.4,0.4,0.6,0.4
		c0.4,0,0.9-0.1,1.5-0.3c0.6-0.2,1.2-0.4,1.8-0.7c0.6-0.3,1.3-0.7,2-1.1c0.7-0.4,1.3-0.8,1.9-1.2c1.5-1,3-2.1,4.6-3.4l2.8,7.3
		c-2.1,1.5-4.1,2.8-6.1,3.9c-0.9,0.5-1.8,1-2.7,1.4c-0.9,0.5-1.9,0.9-2.8,1.3c-0.9,0.4-1.9,0.7-2.8,0.9
		C347.9,99,347.1,99.2,346.3,99.2z M346.3,71.4c1-1.8,2.1-3.9,3.3-6.2c1.2-2.3,2.3-4.7,3.3-7.1c1-2.4,1.9-4.9,2.7-7.3
		c0.8-2.4,1.2-4.7,1.5-6.8c0-0.7,0-1.2-0.1-1.7c0-0.5-0.1-0.7-0.3-0.7c-0.7,0-1.4,0.4-2.2,1.3s-1.5,2-2.3,3.5
		c-0.8,1.5-1.5,3.2-2.2,5.2c-0.7,2-1.3,4.1-1.9,6.3c-0.6,2.2-1,4.5-1.3,6.8C346.5,66.9,346.3,69.2,346.3,71.4z"/>
	<path class="st0" d="M370.2,99.2c-2.2,0-4.1-0.4-5.7-1.2c-1.6-0.8-3-1.8-4.1-3.2c-1.1-1.3-1.9-2.9-2.4-4.6
		c-0.5-1.7-0.8-3.6-0.8-5.5c0-1.3,0.1-2.7,0.4-4.1s0.6-2.9,1.2-4.2c0.5-1.4,1.2-2.7,2-4c0.8-1.3,1.7-2.4,2.8-3.3
		c1.1-1,2.2-1.7,3.5-2.3s2.8-0.8,4.3-0.8c1.3,0,2.5,0.2,3.6,0.6c1.1,0.4,2.1,1,2.9,1.7c0.8,0.8,1.5,1.7,1.9,2.7
		c0.5,1.1,0.7,2.3,0.7,3.6c0,1.4-0.4,2.9-1.1,4.3c-0.7,1.4-1.7,2.8-2.9,4.1c-1.2,1.3-2.7,2.4-4.5,3.4c-1.7,1-3.6,1.8-5.6,2.3
		c0.3,0.6,0.7,1.1,1,1.6c0.3,0.4,0.7,0.7,1,1c0.3,0.2,0.7,0.4,1.1,0.5c0.4,0.1,0.8,0.1,1.2,0.1c1.4,0,2.8-0.3,4.4-0.8s3-1.2,4.5-2.1
		s2.8-1.7,4.1-2.7c1.3-1,2.4-1.9,3.3-2.8l4.5,4.6c-2,2.1-4.2,4-6.5,5.6c-1,0.7-2.1,1.4-3.2,2c-1.1,0.7-2.3,1.3-3.6,1.8
		c-1.3,0.5-2.6,0.9-3.9,1.2C372.9,99,371.6,99.2,370.2,99.2z M365.6,82.9c0.8,0,1.7-0.2,2.7-0.6c1-0.4,1.9-1,2.7-1.6
		c0.8-0.7,1.6-1.4,2.1-2.2c0.6-0.8,0.9-1.5,0.9-2.3c0-1-0.2-1.9-0.6-2.6c-0.4-0.7-0.8-1-1.4-1c-1,0-1.8,0.2-2.5,0.6
		c-0.7,0.4-1.3,0.8-1.8,1.4c-0.5,0.6-0.9,1.3-1.1,2c-0.3,0.8-0.5,1.5-0.7,2.3s-0.2,1.5-0.3,2.2C365.6,81.7,365.6,82.4,365.6,82.9z"
		/>
	<path class="st0" d="M394.8,87.8c0.3-0.2,0.8-0.5,1.5-1c0.7-0.5,1.6-1,2.5-1.7c1-0.6,2-1.4,3.1-2.1c1.1-0.8,2.2-1.6,3.3-2.3
		l0.3-2.4c0.5-4.9,1.3-9.3,2.5-13.4c1.1-4.1,2.5-7.7,4-11c1.5-3.3,3.2-6.1,5-8.6c1.8-2.4,3.7-4.5,5.5-6.1c1.9-1.7,3.7-2.9,5.6-3.7
		c1.8-0.8,3.6-1.2,5.1-1.2c1.2,0,2.2,0.2,3.2,0.7c1,0.4,1.8,1.1,2.5,2c0.7,0.9,1.2,2,1.6,3.3s0.6,2.9,0.6,4.6c0,2.1-0.3,4.4-1,6.8
		c-0.6,2.4-1.6,4.7-2.8,7.1c-1.2,2.4-2.6,4.8-4.3,7.2c-1.7,2.4-3.5,4.7-5.5,6.9c-2,2.2-4.2,4.3-6.5,6.3c-2.3,2-4.8,3.7-7.3,5.3
		c0,1.4-0.1,2.5-0.1,3.3c0,0.8-0.1,1.4-0.1,1.9c0,0.4,0,0.7,0,0.9s0,0.3,0,0.4c0,0.2,0,0.4,0.1,0.6s0.2,0.3,0.5,0.4
		c0.2,0.1,0.6,0.2,1,0.2c0.4,0.1,1,0.1,1.7,0.1c1,0,2.4-0.3,4.2-0.8l11.6-3.3c0.2,0,0.4-0.1,0.6-0.1c0.2,0,0.4,0,0.5,0
		c0.6,0,1.1,0.1,1.5,0.3c0.4,0.2,0.8,0.5,1,0.9c0.3,0.4,0.5,0.8,0.6,1.3c0.1,0.5,0.2,1,0.2,1.5c0,0.5-0.1,0.9-0.2,1.4
		c-0.1,0.4-0.3,0.8-0.6,1.2c-0.3,0.4-0.6,0.7-1,1s-0.9,0.5-1.5,0.6c-2.3,0.9-4.6,1.7-6.9,2.4c-1,0.3-2.1,0.6-3.2,0.9
		s-2.3,0.5-3.4,0.8c-1.2,0.2-2.3,0.4-3.5,0.5c-1.2,0.1-2.3,0.2-3.4,0.2c-1.7,0-3.1-0.3-4.2-0.9c-1.1-0.6-2-1.4-2.6-2.4
		c-0.6-1-1.1-2.2-1.3-3.5c-0.3-1.3-0.4-2.7-0.4-4.2c-2,1.5-3.7,2.6-5.1,3.5s-2.3,1.3-2.7,1.3c-0.4,0-0.8-0.1-1.1-0.4
		c-0.4-0.3-0.7-0.6-1-1.1c-0.3-0.4-0.5-0.9-0.7-1.5c-0.2-0.5-0.3-1.1-0.3-1.6c0-0.4,0.1-0.9,0.2-1.3
		C394.2,88.4,394.4,88.1,394.8,87.8z M414.4,75.7c1.2-1.2,2.4-2.6,3.7-4c1.3-1.4,2.6-3,3.8-4.5c1.3-1.6,2.5-3.2,3.6-4.9
		c1.2-1.7,2.2-3.3,3.2-4.9c0.9-1.6,1.7-3.2,2.4-4.8c0.6-1.5,1-3,1.2-4.4c0.1-0.5,0.1-0.9,0.1-1.3c0-0.4,0-0.8,0-1.2
		c0-1.3-0.2-2.3-0.5-2.9c-0.4-0.6-0.8-0.9-1.5-0.9c-0.7,0-1.6,0.4-2.6,1.2c-1,0.8-2,1.9-3.1,3.3s-2.2,3.2-3.3,5.2
		c-1.1,2-2.1,4.3-3.1,6.8c-0.9,2.5-1.8,5.2-2.5,8.1C415.2,69.4,414.7,72.5,414.4,75.7z"/>
	<path class="st0" d="M460,91.8c-0.8,0.8-1.9,1.6-3.1,2.4c-1.2,0.9-2.6,1.7-4,2.4c-1.4,0.7-2.9,1.3-4.4,1.8
		c-1.5,0.5-2.9,0.7-4.2,0.7c-1.2,0-2.2-0.2-3-0.5c-0.8-0.3-1.5-0.8-2-1.4s-0.9-1.3-1.1-2.2c-0.2-0.9-0.3-1.8-0.3-2.9
		c0-1.5,0.2-3.1,0.5-5.1c0.3-1.9,0.7-3.9,1.2-6c0.5-2.1,1-4.1,1.5-6.2c0.5-2.1,1-3.9,1.4-5.7c0.2-0.6,0.5-1.1,1-1.5
		c0.5-0.4,1-0.8,1.6-1c0.6-0.3,1.2-0.5,1.9-0.6c0.7-0.1,1.3-0.2,1.8-0.2c1,0,1.6,0.2,2,0.5c0.3,0.4,0.5,0.8,0.5,1.4
		c0,0.5-0.1,1.2-0.3,2.2c-0.2,1-0.5,2-0.9,3.3c-0.3,1.2-0.7,2.5-1.1,3.9c-0.4,1.4-0.8,2.8-1.1,4.2c-0.3,1.4-0.6,2.8-0.9,4.1
		c-0.2,1.3-0.3,2.5-0.3,3.6c0,1,0.1,1.9,0.3,2.5c0.2,0.6,0.7,0.9,1.4,0.9c0.8,0,1.8-0.3,2.8-0.9c1-0.6,2-1.3,3.1-2.1
		c1-0.8,2.1-1.7,3-2.5s1.9-1.6,2.6-2.3V91.8z M444.6,56.2c0-0.5,0.1-1.1,0.3-1.8c0.2-0.7,0.6-1.3,1.1-1.9c0.5-0.6,1.2-1.1,2.1-1.5
		c0.9-0.4,1.9-0.6,3.2-0.6c0.8,0,1.6,0.1,2.3,0.3c0.7,0.2,1.3,0.5,1.9,0.8c0.5,0.4,1,0.9,1.3,1.5s0.5,1.4,0.5,2.2
		c0,0.8-0.1,1.5-0.4,2.3c-0.3,0.7-0.7,1.4-1.2,2c-0.6,0.6-1.3,1-2.1,1.4c-0.8,0.4-1.9,0.5-3,0.5c-2,0-3.5-0.5-4.5-1.4
		C445,59,444.6,57.8,444.6,56.2z"/>
	<path class="st0" d="M455.5,100.5c0-0.1,0-0.8,0.1-2.1c0.1-1.3,0.2-3,0.3-5.2c0.2-2.1,0.4-4.6,0.7-7.4s0.6-5.8,1.1-8.9
		c0.5-3.1,1-6.3,1.6-9.6c0.6-3.3,1.3-6.5,2.2-9.6c0.8-3.1,1.8-6.1,2.9-8.8c1.1-2.8,2.3-5.2,3.7-7.2c1.4-2.1,2.9-3.7,4.5-4.9
		c1.7-1.2,3.5-1.8,5.5-1.8c0.8,0,1.6,0.1,2.5,0.4c0.9,0.3,1.7,0.7,2.4,1.4s1.3,1.4,1.8,2.5c0.5,1,0.7,2.3,0.7,3.8
		c0,1.4-0.2,2.9-0.6,4.7c-0.4,1.8-1,3.7-1.8,5.7c-0.8,2-1.7,4.1-2.7,6.3c-1.1,2.2-2.2,4.3-3.4,6.5s-2.6,4.3-3.9,6.4s-2.8,4-4.2,5.9
		l-0.1,0.6c0.5-0.2,0.8-0.4,1-0.5c0.2-0.1,0.5-0.1,0.7-0.1c0.3,0,0.5,0,0.7,0.1s0.4,0.1,0.5,0.2c0.1,0.1,0.3,0.1,0.5,0.2
		c0.2,0.1,0.4,0.1,0.6,0.1c2.3,0,4.3-0.3,6.1-0.8c1.8-0.5,3.2-1.1,4.4-1.8c1.4-0.8,2.6-1.7,3.7-2.7l-0.8,8.4
		c-1.5,0.8-3.1,1.5-4.8,1.9c-1.7,0.5-3.2,0.8-4.6,1c-1.6,0.3-3.3,0.4-4.9,0.5c0.8,1.5,1.6,3.1,2.3,4.7c0.6,1.4,1.1,3,1.6,4.7
		c0.5,1.7,0.7,3.5,0.7,5.3c0,0.2,0,0.6-0.1,1.3c-0.1,0.7-0.2,1.5-0.3,2.5c-0.1,1-0.3,2-0.6,3.2c-0.3,1.2-0.6,2.4-1,3.6
		c-0.4,1.2-0.9,2.4-1.5,3.5c-0.6,1.1-1.3,2.1-2,3c-0.8,0.9-1.7,1.6-2.7,2.1c-1,0.5-2.1,0.8-3.4,0.8c-1.3,0-2.4-0.3-3.3-0.9
		c-0.9-0.6-1.8-1.4-2.4-2.3c-0.7-1-1.2-2.1-1.7-3.4s-0.8-2.7-1.1-4.1c-0.3-1.5-0.4-2.9-0.5-4.5C455.6,103.3,455.5,101.9,455.5,100.5
		z M464.8,83.8c-0.1,0-0.2,0.3-0.3,0.8c-0.1,0.5-0.2,1.2-0.3,2c-0.1,0.8-0.2,1.7-0.3,2.8c-0.1,1-0.2,2-0.2,3c-0.1,1-0.1,1.9-0.2,2.7
		c0,0.8-0.1,1.5-0.1,2c0,3.4,0.1,6.1,0.2,8.1c0.1,2,0.3,3.5,0.5,4.6c0.2,1,0.4,1.7,0.7,2c0.2,0.3,0.5,0.5,0.7,0.5
		c0.8,0,1.4-0.4,1.9-1.1c0.5-0.7,0.8-1.6,1.1-2.7c0.2-1.1,0.4-2.3,0.5-3.6c0.1-1.3,0.1-2.6,0.1-3.8c0-0.8-0.1-1.8-0.2-3
		c-0.1-1.2-0.3-2.4-0.5-3.7s-0.5-2.6-0.8-3.8c-0.3-1.3-0.6-2.4-0.9-3.4c-0.3-1-0.6-1.8-1-2.4C465.3,84.2,465,83.8,464.8,83.8z
		 M473.2,46c-1.3,3.3-2.4,6.3-3.2,8.8c-0.8,2.5-1.3,4.8-1.7,6.7c-0.4,2-0.7,3.7-0.8,5.2c-0.2,1.5-0.3,2.9-0.5,4.1
		c1.4-2.7,2.8-5.3,4.3-7.8c1.4-2.6,2.7-5,3.9-7.2c1.2-2.2,2.1-4.2,2.8-5.8s1.1-3,1.1-3.8c0-1.2-0.2-2.1-0.5-2.7
		c-0.3-0.6-0.8-0.8-1.4-0.8c-1.1,0-1.9,0.3-2.4,0.8C474.1,44.1,473.6,44.9,473.2,46z"/>
	<path class="st0" d="M494.3,99.2c-2.2,0-4.1-0.4-5.7-1.2c-1.6-0.8-3-1.8-4.1-3.2c-1.1-1.3-1.9-2.9-2.4-4.6
		c-0.5-1.7-0.8-3.6-0.8-5.5c0-1.3,0.1-2.7,0.4-4.1s0.6-2.9,1.2-4.2c0.5-1.4,1.2-2.7,2-4c0.8-1.3,1.7-2.4,2.8-3.3
		c1.1-1,2.2-1.7,3.5-2.3s2.8-0.8,4.3-0.8c1.3,0,2.5,0.2,3.6,0.6c1.1,0.4,2.1,1,2.9,1.7c0.8,0.8,1.5,1.7,1.9,2.7
		c0.5,1.1,0.7,2.3,0.7,3.6c0,1.4-0.4,2.9-1.1,4.3c-0.7,1.4-1.7,2.8-2.9,4.1c-1.2,1.3-2.7,2.4-4.5,3.4c-1.7,1-3.6,1.8-5.6,2.3
		c0.3,0.6,0.7,1.1,1,1.6c0.3,0.4,0.7,0.7,1,1c0.3,0.2,0.7,0.4,1.1,0.5c0.4,0.1,0.8,0.1,1.2,0.1c1.4,0,2.8-0.3,4.4-0.8s3-1.2,4.5-2.1
		s2.8-1.7,4.1-2.7c1.3-1,2.4-1.9,3.3-2.8l4.5,4.6c-2,2.1-4.2,4-6.5,5.6c-1,0.7-2.1,1.4-3.2,2c-1.1,0.7-2.3,1.3-3.6,1.8
		c-1.3,0.5-2.6,0.9-3.9,1.2C497.1,99,495.7,99.2,494.3,99.2z M489.7,82.9c0.8,0,1.7-0.2,2.7-0.6c1-0.4,1.9-1,2.7-1.6
		c0.8-0.7,1.6-1.4,2.1-2.2c0.6-0.8,0.9-1.5,0.9-2.3c0-1-0.2-1.9-0.6-2.6c-0.4-0.7-0.8-1-1.4-1c-1,0-1.8,0.2-2.5,0.6
		c-0.7,0.4-1.3,0.8-1.8,1.4c-0.5,0.6-0.9,1.3-1.1,2c-0.3,0.8-0.5,1.5-0.7,2.3s-0.2,1.5-0.3,2.2C489.8,81.7,489.7,82.4,489.7,82.9z"
		/>
</g>
</svg>
